<svg width="18" height="21" viewBox="0 0 18 21" fill="none" xmlns="http://www.w3.org/2000/svg">
<path d="M18 2.92857V17.0714C18 18.1362 17.1362 19 16.0714 19H12.6442V11.8804H15.079L15.4286 9.16429H12.6442V7.42857C12.6442 6.64107 12.8612 6.1067 13.9902 6.1067H15.4286V3.67991C15.1795 3.64777 14.3277 3.57143 13.3312 3.57143C11.258 3.57143 9.83571 4.83705 9.83571 7.16339V9.1683H7.39286V11.8844H9.83973V19H1.92857C0.863839 19 0 18.1362 0 17.0714V2.92857C0 1.86384 0.863839 1 1.92857 1H16.0714C17.1362 1 18 1.86384 18 2.92857Z" fill="white"/>
</svg>
