<svg width="22" height="21" viewBox="0 0 22 21" fill="none" xmlns="http://www.w3.org/2000/svg">
<path d="M19.7386 6.2367C19.7526 6.42263 19.7526 6.6086 19.7526 6.79453C19.7526 12.4656 15.2158 19 6.92388 19C4.36929 19 1.99621 18.2961 0 17.0742C0.362958 17.1141 0.711909 17.1273 1.08883 17.1273C3.19667 17.1273 5.13706 16.45 6.68656 15.2945C4.70432 15.2547 3.04314 14.0195 2.4708 12.3195C2.75001 12.3593 3.02918 12.3859 3.32236 12.3859C3.72717 12.3859 4.13202 12.3328 4.5089 12.2399C2.44291 11.8414 0.893367 10.1148 0.893367 8.02968V7.97657C1.4936 8.29533 2.19163 8.49454 2.93143 8.52107C1.71695 7.75075 0.921297 6.43592 0.921297 4.94841C0.921297 4.15155 1.14461 3.42108 1.53549 2.78357C3.75505 5.3867 7.09138 7.08667 10.8325 7.27264C10.7627 6.95389 10.7208 6.62189 10.7208 6.28985C10.7208 3.92576 12.731 2 15.2297 2C16.5279 2 17.7005 2.51797 18.5241 3.35469C19.5431 3.16876 20.5203 2.81015 21.3858 2.31875C21.0507 3.31487 20.3388 4.15159 19.4036 4.6828C20.3109 4.58988 21.1904 4.35076 22 4.01876C21.3859 4.86873 20.6181 5.62573 19.7386 6.2367Z" fill="white"/>
</svg>
